<mxfile host="65bd71144e" compressed="true">
    <diagram id="xFMEbCwcm_0PmMwW7K3I" name="Events">
        <mxGraphModel dx="1182" dy="788" grid="1" gridSize="10" guides="1" tooltips="1" connect="1" arrows="1" fold="1" page="1" pageScale="1" pageWidth="1169" pageHeight="827" math="0" shadow="0">
            <root>
                <mxCell id="0"/>
                <mxCell id="1" parent="0"/>
                <mxCell id="SUN9tsCCt_Gz_PHtWFEa-1" value="General events, not related to opened serial port" style="swimlane;rounded=0;sketch=0;fillColor=#3B3B3B;strokeColor=#7D7D7D;fontColor=#DEDEDE;labelBackgroundColor=none;" parent="1" vertex="1">
                    <mxGeometry x="10" y="10" width="350" height="130" as="geometry"/>
                </mxCell>
                <mxCell id="JyVQtZqkYhoLWxrTtoGM-6" value="Serial ports list requested" style="rounded=1;whiteSpace=wrap;html=1;fillColor=#fa6800;fontColor=#000000;strokeColor=#C73500;" parent="SUN9tsCCt_Gz_PHtWFEa-1" vertex="1">
                    <mxGeometry x="20" y="40" width="120" height="60" as="geometry"/>
                </mxCell>
                <mxCell id="JyVQtZqkYhoLWxrTtoGM-8" value="Serial port list" style="ellipse;whiteSpace=wrap;html=1;aspect=fixed;fillColor=#f0a30a;strokeColor=#BD7000;fontColor=#000000;" parent="SUN9tsCCt_Gz_PHtWFEa-1" vertex="1">
                    <mxGeometry x="140" y="45" width="50" height="50" as="geometry"/>
                </mxCell>
                <mxCell id="JyVQtZqkYhoLWxrTtoGM-9" value="Basic events related to specific serial port" style="swimlane;swimlaneFillColor=none;gradientColor=none;fillColor=#3B3B3B;strokeColor=#7D7D7D;fontColor=#DEDEDE;labelBackgroundColor=none;" parent="1" vertex="1">
                    <mxGeometry x="380" y="10" width="780" height="440" as="geometry"/>
                </mxCell>
                <mxCell id="JyVQtZqkYhoLWxrTtoGM-10" value="Connected to serial port" style="rounded=1;whiteSpace=wrap;html=1;fillColor=#fa6800;strokeColor=#C73500;fontColor=#000000;" parent="JyVQtZqkYhoLWxrTtoGM-9" vertex="1">
                    <mxGeometry x="60" y="50" width="120" height="60" as="geometry"/>
                </mxCell>
                <mxCell id="JyVQtZqkYhoLWxrTtoGM-11" value="Disconnected from serial port" style="rounded=1;whiteSpace=wrap;html=1;fillColor=#fa6800;strokeColor=#C73500;fontColor=#000000;" parent="JyVQtZqkYhoLWxrTtoGM-9" vertex="1">
                    <mxGeometry x="60" y="130" width="120" height="60" as="geometry"/>
                </mxCell>
                <mxCell id="JyVQtZqkYhoLWxrTtoGM-13" value="Serial port data received" style="rounded=1;whiteSpace=wrap;html=1;fillColor=#76608a;strokeColor=#432D57;fontColor=#ffffff;" parent="JyVQtZqkYhoLWxrTtoGM-9" vertex="1">
                    <mxGeometry x="297.5" y="50" width="120" height="60" as="geometry"/>
                </mxCell>
                <mxCell id="JyVQtZqkYhoLWxrTtoGM-16" value="Serial port ID" style="ellipse;whiteSpace=wrap;html=1;aspect=fixed;fillColor=#1ba1e2;strokeColor=#006EAF;fontColor=#ffffff;" parent="JyVQtZqkYhoLWxrTtoGM-9" vertex="1">
                    <mxGeometry x="10" y="55" width="50" height="50" as="geometry"/>
                </mxCell>
                <mxCell id="JyVQtZqkYhoLWxrTtoGM-17" value="Serial port data sent" style="rounded=1;whiteSpace=wrap;html=1;fillColor=#fa6800;strokeColor=#C73500;fontColor=#000000;" parent="JyVQtZqkYhoLWxrTtoGM-9" vertex="1">
                    <mxGeometry x="60" y="232.5" width="120" height="60" as="geometry"/>
                </mxCell>
                <mxCell id="JyVQtZqkYhoLWxrTtoGM-19" value="User data" style="ellipse;whiteSpace=wrap;html=1;aspect=fixed;fillColor=#1ba1e2;strokeColor=#006EAF;fontColor=#ffffff;" parent="JyVQtZqkYhoLWxrTtoGM-9" vertex="1">
                    <mxGeometry x="10" y="257.5" width="50" height="50" as="geometry"/>
                </mxCell>
                <mxCell id="JyVQtZqkYhoLWxrTtoGM-21" value="Serial port ID" style="ellipse;whiteSpace=wrap;html=1;aspect=fixed;fillColor=#1ba1e2;strokeColor=#006EAF;fontColor=#ffffff;" parent="JyVQtZqkYhoLWxrTtoGM-9" vertex="1">
                    <mxGeometry x="10" y="135" width="50" height="50" as="geometry"/>
                </mxCell>
                <mxCell id="JyVQtZqkYhoLWxrTtoGM-22" value="Serial port ID" style="ellipse;whiteSpace=wrap;html=1;aspect=fixed;fillColor=#1ba1e2;strokeColor=#006EAF;fontColor=#ffffff;" parent="JyVQtZqkYhoLWxrTtoGM-9" vertex="1">
                    <mxGeometry x="297.5" y="207.5" width="50" height="50" as="geometry"/>
                </mxCell>
                <mxCell id="JyVQtZqkYhoLWxrTtoGM-23" value="Data format" style="ellipse;whiteSpace=wrap;html=1;aspect=fixed;fillColor=#1ba1e2;strokeColor=#006EAF;fontColor=#ffffff;" parent="JyVQtZqkYhoLWxrTtoGM-9" vertex="1">
                    <mxGeometry x="297.5" y="257.5" width="50" height="50" as="geometry"/>
                </mxCell>
                <mxCell id="JyVQtZqkYhoLWxrTtoGM-24" value="User data format changed" style="rounded=1;whiteSpace=wrap;html=1;fillColor=#fa6800;strokeColor=#C73500;fontColor=#000000;" parent="JyVQtZqkYhoLWxrTtoGM-9" vertex="1">
                    <mxGeometry x="347.5" y="227.5" width="120" height="60" as="geometry"/>
                </mxCell>
                <mxCell id="JyVQtZqkYhoLWxrTtoGM-25" value="User message terminator changed" style="rounded=1;whiteSpace=wrap;html=1;fillColor=#fa6800;strokeColor=#C73500;fontColor=#000000;" parent="JyVQtZqkYhoLWxrTtoGM-9" vertex="1">
                    <mxGeometry x="347.5" y="337.5" width="120" height="60" as="geometry"/>
                </mxCell>
                <mxCell id="JyVQtZqkYhoLWxrTtoGM-26" value="Serial port ID" style="ellipse;whiteSpace=wrap;html=1;aspect=fixed;fillColor=#1ba1e2;strokeColor=#006EAF;fontColor=#ffffff;" parent="JyVQtZqkYhoLWxrTtoGM-9" vertex="1">
                    <mxGeometry x="297.5" y="322.5" width="50" height="50" as="geometry"/>
                </mxCell>
                <mxCell id="JyVQtZqkYhoLWxrTtoGM-27" value="Term format" style="ellipse;whiteSpace=wrap;html=1;aspect=fixed;fillColor=#1ba1e2;strokeColor=#006EAF;fontColor=#ffffff;" parent="JyVQtZqkYhoLWxrTtoGM-9" vertex="1">
                    <mxGeometry x="297.5" y="372.5" width="50" height="50" as="geometry"/>
                </mxCell>
                <mxCell id="JyVQtZqkYhoLWxrTtoGM-28" value="Serial port ID" style="ellipse;whiteSpace=wrap;html=1;aspect=fixed;fillColor=#1ba1e2;strokeColor=#006EAF;fontColor=#ffffff;" parent="JyVQtZqkYhoLWxrTtoGM-9" vertex="1">
                    <mxGeometry x="510" y="207.5" width="50" height="50" as="geometry"/>
                </mxCell>
                <mxCell id="JyVQtZqkYhoLWxrTtoGM-29" value="Data format" style="ellipse;whiteSpace=wrap;html=1;aspect=fixed;fillColor=#1ba1e2;strokeColor=#006EAF;fontColor=#ffffff;" parent="JyVQtZqkYhoLWxrTtoGM-9" vertex="1">
                    <mxGeometry x="510" y="257.5" width="50" height="50" as="geometry"/>
                </mxCell>
                <mxCell id="JyVQtZqkYhoLWxrTtoGM-30" value="Device data format changed" style="rounded=1;whiteSpace=wrap;html=1;fillColor=#fa6800;strokeColor=#C73500;fontColor=#000000;" parent="JyVQtZqkYhoLWxrTtoGM-9" vertex="1">
                    <mxGeometry x="560" y="227.5" width="120" height="60" as="geometry"/>
                </mxCell>
                <mxCell id="JyVQtZqkYhoLWxrTtoGM-31" value="Device message terminator changed" style="rounded=1;whiteSpace=wrap;html=1;fillColor=#fa6800;strokeColor=#C73500;fontColor=#000000;" parent="JyVQtZqkYhoLWxrTtoGM-9" vertex="1">
                    <mxGeometry x="560" y="337.5" width="120" height="60" as="geometry"/>
                </mxCell>
                <mxCell id="JyVQtZqkYhoLWxrTtoGM-32" value="Serial port ID" style="ellipse;whiteSpace=wrap;html=1;aspect=fixed;fillColor=#1ba1e2;strokeColor=#006EAF;fontColor=#ffffff;" parent="JyVQtZqkYhoLWxrTtoGM-9" vertex="1">
                    <mxGeometry x="510" y="322.5" width="50" height="50" as="geometry"/>
                </mxCell>
                <mxCell id="JyVQtZqkYhoLWxrTtoGM-33" value="Term format" style="ellipse;whiteSpace=wrap;html=1;aspect=fixed;fillColor=#1ba1e2;strokeColor=#006EAF;fontColor=#ffffff;" parent="JyVQtZqkYhoLWxrTtoGM-9" vertex="1">
                    <mxGeometry x="510" y="372.5" width="50" height="50" as="geometry"/>
                </mxCell>
                <mxCell id="JyVQtZqkYhoLWxrTtoGM-34" value="Serial port state" style="ellipse;whiteSpace=wrap;html=1;aspect=fixed;fillColor=#f0a30a;strokeColor=#BD7000;fontColor=#000000;" parent="JyVQtZqkYhoLWxrTtoGM-9" vertex="1">
                    <mxGeometry x="180" y="52.5" width="55" height="55" as="geometry"/>
                </mxCell>
                <mxCell id="JyVQtZqkYhoLWxrTtoGM-35" value="Serial port state" style="ellipse;whiteSpace=wrap;html=1;aspect=fixed;fillColor=#f0a30a;strokeColor=#BD7000;fontColor=#000000;" parent="JyVQtZqkYhoLWxrTtoGM-9" vertex="1">
                    <mxGeometry x="180" y="132.5" width="55" height="55" as="geometry"/>
                </mxCell>
                <mxCell id="JyVQtZqkYhoLWxrTtoGM-41" value="Serial port&lt;br&gt;data buffered" style="shape=cylinder3;whiteSpace=wrap;html=1;boundedLbl=1;backgroundOutline=1;size=15;fillColor=#6d8764;strokeColor=#3A5431;fontColor=#ffffff;" parent="JyVQtZqkYhoLWxrTtoGM-9" vertex="1">
                    <mxGeometry x="417.5" y="40" width="60" height="80" as="geometry"/>
                </mxCell>
                <mxCell id="JyVQtZqkYhoLWxrTtoGM-42" value="Serial port buffered data requested" style="rounded=1;whiteSpace=wrap;html=1;fillColor=#fa6800;strokeColor=#C73500;fontColor=#000000;" parent="JyVQtZqkYhoLWxrTtoGM-9" vertex="1">
                    <mxGeometry x="560" y="50" width="120" height="60" as="geometry"/>
                </mxCell>
                <mxCell id="JyVQtZqkYhoLWxrTtoGM-43" value="Serial port ID" style="ellipse;whiteSpace=wrap;html=1;aspect=fixed;fillColor=#1ba1e2;strokeColor=#006EAF;fontColor=#ffffff;" parent="JyVQtZqkYhoLWxrTtoGM-9" vertex="1">
                    <mxGeometry x="510" y="52.5" width="50" height="50" as="geometry"/>
                </mxCell>
                <mxCell id="JyVQtZqkYhoLWxrTtoGM-46" value="Serial port&lt;br&gt;state requested" style="rounded=1;whiteSpace=wrap;html=1;fillColor=#fa6800;strokeColor=#C73500;fontColor=#000000;" parent="JyVQtZqkYhoLWxrTtoGM-9" vertex="1">
                    <mxGeometry x="57.5" y="330" width="120" height="60" as="geometry"/>
                </mxCell>
                <mxCell id="JyVQtZqkYhoLWxrTtoGM-47" value="Serial port state" style="ellipse;whiteSpace=wrap;html=1;aspect=fixed;fillColor=#f0a30a;strokeColor=#BD7000;fontColor=#000000;" parent="JyVQtZqkYhoLWxrTtoGM-9" vertex="1">
                    <mxGeometry x="177.5" y="335" width="55" height="55" as="geometry"/>
                </mxCell>
                <mxCell id="JyVQtZqkYhoLWxrTtoGM-48" value="Serial port ID" style="ellipse;whiteSpace=wrap;html=1;aspect=fixed;fillColor=#1ba1e2;strokeColor=#006EAF;fontColor=#ffffff;" parent="JyVQtZqkYhoLWxrTtoGM-9" vertex="1">
                    <mxGeometry x="7.5" y="335" width="50" height="50" as="geometry"/>
                </mxCell>
                <mxCell id="JyVQtZqkYhoLWxrTtoGM-75" value="Serial port ID" style="ellipse;whiteSpace=wrap;html=1;aspect=fixed;fillColor=#1ba1e2;strokeColor=#006EAF;fontColor=#ffffff;" parent="JyVQtZqkYhoLWxrTtoGM-9" vertex="1">
                    <mxGeometry x="10" y="207.5" width="50" height="50" as="geometry"/>
                </mxCell>
                <mxCell id="APG6jA4gBoMuKgWOp-kU-1" value="Serial port amount of buffered data requested" style="rounded=1;whiteSpace=wrap;html=1;fillColor=#fa6800;strokeColor=#C73500;fontColor=#000000;" parent="JyVQtZqkYhoLWxrTtoGM-9" vertex="1">
                    <mxGeometry x="560" y="127.5" width="120" height="60" as="geometry"/>
                </mxCell>
                <mxCell id="APG6jA4gBoMuKgWOp-kU-2" value="Serial port ID" style="ellipse;whiteSpace=wrap;html=1;aspect=fixed;fillColor=#1ba1e2;strokeColor=#006EAF;fontColor=#ffffff;" parent="JyVQtZqkYhoLWxrTtoGM-9" vertex="1">
                    <mxGeometry x="510" y="130" width="50" height="50" as="geometry"/>
                </mxCell>
                <mxCell id="APG6jA4gBoMuKgWOp-kU-3" value="Serial port data" style="ellipse;whiteSpace=wrap;html=1;aspect=fixed;fillColor=#f0a30a;strokeColor=#BD7000;fontColor=#000000;" parent="JyVQtZqkYhoLWxrTtoGM-9" vertex="1">
                    <mxGeometry x="680" y="50" width="55" height="55" as="geometry"/>
                </mxCell>
                <mxCell id="APG6jA4gBoMuKgWOp-kU-4" value="Amount of buffered data" style="ellipse;whiteSpace=wrap;html=1;aspect=fixed;fillColor=#f0a30a;strokeColor=#BD7000;fontColor=#000000;" parent="JyVQtZqkYhoLWxrTtoGM-9" vertex="1">
                    <mxGeometry x="680" y="123.75" width="67.5" height="67.5" as="geometry"/>
                </mxCell>
                <mxCell id="JyVQtZqkYhoLWxrTtoGM-62" value="Possible data formats" style="swimlane;fontStyle=1;childLayout=stackLayout;horizontal=1;startSize=23;horizontalStack=0;resizeParent=1;resizeParentMax=0;resizeLast=0;collapsible=1;marginBottom=0;fillColor=#3B3B3B;strokeColor=#7D7D7D;fontColor=#DEDEDE;labelBackgroundColor=none;" parent="1" vertex="1">
                    <mxGeometry x="200" y="158.5" width="160" height="143" as="geometry"/>
                </mxCell>
                <mxCell id="JyVQtZqkYhoLWxrTtoGM-63" value="Text" style="text;strokeColor=none;fillColor=#2A2A2A;align=left;verticalAlign=middle;spacingLeft=4;spacingRight=4;overflow=hidden;points=[[0,0.5],[1,0.5]];portConstraint=eastwest;rotatable=0;labelBackgroundColor=none;fontColor=#DEDEDE;" parent="JyVQtZqkYhoLWxrTtoGM-62" vertex="1">
                    <mxGeometry y="23" width="160" height="30" as="geometry"/>
                </mxCell>
                <mxCell id="JyVQtZqkYhoLWxrTtoGM-64" value="Raw Bytes" style="text;strokeColor=none;fillColor=#2A2A2A;align=left;verticalAlign=middle;spacingLeft=4;spacingRight=4;overflow=hidden;points=[[0,0.5],[1,0.5]];portConstraint=eastwest;rotatable=0;labelBackgroundColor=none;fontColor=#DEDEDE;" parent="JyVQtZqkYhoLWxrTtoGM-62" vertex="1">
                    <mxGeometry y="53" width="160" height="30" as="geometry"/>
                </mxCell>
                <mxCell id="JyVQtZqkYhoLWxrTtoGM-65" value="Protobuf" style="text;strokeColor=none;fillColor=#2A2A2A;align=left;verticalAlign=middle;spacingLeft=4;spacingRight=4;overflow=hidden;points=[[0,0.5],[1,0.5]];portConstraint=eastwest;rotatable=0;labelBackgroundColor=none;fontColor=#DEDEDE;" parent="JyVQtZqkYhoLWxrTtoGM-62" vertex="1">
                    <mxGeometry y="83" width="160" height="30" as="geometry"/>
                </mxCell>
                <mxCell id="JyVQtZqkYhoLWxrTtoGM-66" value="Msgpack" style="text;strokeColor=none;fillColor=#2A2A2A;align=left;verticalAlign=middle;spacingLeft=4;spacingRight=4;overflow=hidden;points=[[0,0.5],[1,0.5]];portConstraint=eastwest;rotatable=0;labelBackgroundColor=none;fontColor=#DEDEDE;" parent="JyVQtZqkYhoLWxrTtoGM-62" vertex="1">
                    <mxGeometry y="113" width="160" height="30" as="geometry"/>
                </mxCell>
                <mxCell id="JyVQtZqkYhoLWxrTtoGM-67" value="Possible terminator formats" style="swimlane;fontStyle=1;childLayout=stackLayout;horizontal=1;startSize=23;horizontalStack=0;resizeParent=1;resizeParentMax=0;resizeLast=0;collapsible=1;marginBottom=0;fillColor=#3B3B3B;strokeColor=#7D7D7D;fontColor=#DEDEDE;labelBackgroundColor=none;" parent="1" vertex="1">
                    <mxGeometry x="10" y="158.5" width="180" height="143" as="geometry"/>
                </mxCell>
                <mxCell id="JyVQtZqkYhoLWxrTtoGM-68" value="Characters sequence" style="text;strokeColor=none;fillColor=#2A2A2A;align=left;verticalAlign=middle;spacingLeft=4;spacingRight=4;overflow=hidden;points=[[0,0.5],[1,0.5]];portConstraint=eastwest;rotatable=0;labelBackgroundColor=none;fontColor=#DEDEDE;" parent="JyVQtZqkYhoLWxrTtoGM-67" vertex="1">
                    <mxGeometry y="23" width="180" height="30" as="geometry"/>
                </mxCell>
                <mxCell id="JyVQtZqkYhoLWxrTtoGM-80" value="Bytes sequence" style="text;strokeColor=none;fillColor=#2A2A2A;align=left;verticalAlign=middle;spacingLeft=4;spacingRight=4;overflow=hidden;points=[[0,0.5],[1,0.5]];portConstraint=eastwest;rotatable=0;labelBackgroundColor=none;fontColor=#DEDEDE;" parent="JyVQtZqkYhoLWxrTtoGM-67" vertex="1">
                    <mxGeometry y="53" width="180" height="30" as="geometry"/>
                </mxCell>
                <mxCell id="JyVQtZqkYhoLWxrTtoGM-69" value="Regex" style="text;strokeColor=none;fillColor=#2A2A2A;align=left;verticalAlign=middle;spacingLeft=4;spacingRight=4;overflow=hidden;points=[[0,0.5],[1,0.5]];portConstraint=eastwest;rotatable=0;labelBackgroundColor=none;fontColor=#DEDEDE;" parent="JyVQtZqkYhoLWxrTtoGM-67" vertex="1">
                    <mxGeometry y="83" width="180" height="30" as="geometry"/>
                </mxCell>
                <mxCell id="JyVQtZqkYhoLWxrTtoGM-70" value="Fixed-length" style="text;strokeColor=none;fillColor=#2A2A2A;align=left;verticalAlign=middle;spacingLeft=4;spacingRight=4;overflow=hidden;points=[[0,0.5],[1,0.5]];portConstraint=eastwest;rotatable=0;labelBackgroundColor=none;fontColor=#DEDEDE;" parent="JyVQtZqkYhoLWxrTtoGM-67" vertex="1">
                    <mxGeometry y="113" width="180" height="30" as="geometry"/>
                </mxCell>
                <mxCell id="JyVQtZqkYhoLWxrTtoGM-72" value="Data-in" style="ellipse;whiteSpace=wrap;html=1;aspect=fixed;fillColor=#1ba1e2;strokeColor=#006EAF;fontColor=#ffffff;" parent="1" vertex="1">
                    <mxGeometry x="30" y="325" width="50" height="50" as="geometry"/>
                </mxCell>
                <mxCell id="JyVQtZqkYhoLWxrTtoGM-73" value="Event" style="rounded=1;whiteSpace=wrap;html=1;fillColor=#fa6800;strokeColor=#C73500;fontColor=#000000;" parent="1" vertex="1">
                    <mxGeometry x="80" y="320" width="120" height="60" as="geometry"/>
                </mxCell>
                <mxCell id="JyVQtZqkYhoLWxrTtoGM-74" value="Data-out" style="ellipse;whiteSpace=wrap;html=1;aspect=fixed;fillColor=#f0a30a;strokeColor=#BD7000;fontColor=#000000;" parent="1" vertex="1">
                    <mxGeometry x="200" y="325" width="55" height="55" as="geometry"/>
                </mxCell>
                <mxCell id="2" value="External event" style="rounded=1;whiteSpace=wrap;html=1;fillColor=#76608a;strokeColor=#432D57;fontColor=#ffffff;" parent="1" vertex="1">
                    <mxGeometry x="50" y="420" width="120" height="60" as="geometry"/>
                </mxCell>
                <mxCell id="3" value="Data buffering" style="shape=cylinder3;whiteSpace=wrap;html=1;boundedLbl=1;backgroundOutline=1;size=15;fillColor=#6d8764;strokeColor=#3A5431;fontColor=#ffffff;" parent="1" vertex="1">
                    <mxGeometry x="170" y="410" width="60" height="80" as="geometry"/>
                </mxCell>
            </root>
        </mxGraphModel>
    </diagram>
</mxfile>